<svg xmlns="http://www.w3.org/2000/svg" xmlns:xlink="http://www.w3.org/1999/xlink" width="500" zoomAndPan="magnify" viewBox="0 0 375 374.999991" height="500" preserveAspectRatio="xMidYMid meet" version="1.0"><defs><g/><clipPath id="id1"><path d="M 105.367188 132.570312 L 282.789062 132.570312 L 282.789062 162.183594 L 105.367188 162.183594 Z M 105.367188 132.570312 " clip-rule="nonzero"/></clipPath><clipPath id="id2"><path d="M 92.292969 125.464844 L 223 125.464844 L 223 162.183594 L 92.292969 162.183594 Z M 92.292969 125.464844 " clip-rule="nonzero"/></clipPath><clipPath id="id3"><path d="M 221 125.445312 L 236 125.445312 L 236 130 L 221 130 Z M 221 125.445312 " clip-rule="nonzero"/></clipPath><clipPath id="id4"><path d="M 233 125.445312 L 247 125.445312 L 247 130 L 233 130 Z M 233 125.445312 " clip-rule="nonzero"/></clipPath><clipPath id="id5"><path d="M 245 125.445312 L 257 125.445312 L 257 130 L 245 130 Z M 245 125.445312 " clip-rule="nonzero"/></clipPath><clipPath id="id6"><path d="M 256 125.445312 L 268 125.445312 L 268 130 L 256 130 Z M 256 125.445312 " clip-rule="nonzero"/></clipPath></defs><g clip-path="url(#id1)"><path fill="#cab064" d="M 174.035156 137.082031 L 266.519531 138.265625 L 164.15625 141.214844 L 240.488281 142.683594 L 154.265625 145.347656 L 218.398438 147.269531 L 144.355469 149.492188 L 196.9375 151.386719 L 134.414062 153.644531 L 175.472656 155.503906 L 124.414062 157.820312 L 154.007812 159.621094 L 111.980469 162.183594 L 105.476562 162.183594 L 143.128906 139.046875 C 150.234375 134.679688 158.433594 132.449219 166.757812 132.613281 L 282.789062 132.613281 L 174.035156 137.082031 " fill-opacity="1" fill-rule="nonzero"/></g><g clip-path="url(#id2)"><path fill="#cab064" d="M 140.4375 132.195312 L 92.292969 162.183594 L 99.671875 162.183594 L 142.472656 135.527344 C 149.273438 131.347656 157.082031 129.222656 165.050781 129.378906 L 165.070312 129.382812 L 216.640625 129.382812 L 222.917969 125.472656 L 165.105469 125.472656 C 156.402344 125.300781 147.875 127.625 140.4375 132.195312 " fill-opacity="1" fill-rule="nonzero"/></g><g clip-path="url(#id3)"><path fill="#cab064" d="M 227.679688 125.472656 L 221.402344 129.382812 L 229.011719 129.382812 L 235.289062 125.472656 L 227.679688 125.472656 " fill-opacity="1" fill-rule="nonzero"/></g><g clip-path="url(#id4)"><path fill="#cab064" d="M 239.542969 125.472656 L 233.265625 129.382812 L 239.789062 129.382812 L 246.066406 125.472656 L 239.542969 125.472656 " fill-opacity="1" fill-rule="nonzero"/></g><g clip-path="url(#id5)"><path fill="#cab064" d="M 251.40625 125.472656 L 245.128906 129.382812 L 250.566406 129.382812 L 256.84375 125.472656 L 251.40625 125.472656 " fill-opacity="1" fill-rule="nonzero"/></g><g clip-path="url(#id6)"><path fill="#cab064" d="M 263.269531 125.472656 L 256.996094 129.382812 L 261.34375 129.382812 L 267.617188 125.472656 L 263.269531 125.472656 " fill-opacity="1" fill-rule="nonzero"/></g><g fill="#cab064" fill-opacity="1"><g transform="translate(68.096816, 209.353609)"><g><path d="M 12.503906 -15.53125 L 12.464844 -15.492188 C 11.667969 -15.890625 10.792969 -16.328125 9.917969 -16.726562 C 9 -17.125 8.164062 -17.5625 7.449219 -18.082031 C 6.691406 -18.558594 6.054688 -19.15625 5.574219 -19.792969 C 5.097656 -20.429688 4.859375 -21.265625 4.859375 -22.222656 C 4.859375 -22.859375 5.019531 -23.496094 5.375 -24.054688 C 5.734375 -24.613281 6.210938 -25.089844 6.851562 -25.488281 C 7.449219 -25.886719 8.164062 -26.203125 9 -26.445312 C 9.835938 -26.683594 10.753906 -26.800781 11.707031 -26.800781 C 12.425781 -26.800781 13.023438 -26.761719 13.582031 -26.683594 C 14.097656 -26.601562 14.574219 -26.484375 15.015625 -26.363281 C 16.128906 -25.964844 17.003906 -25.289062 17.640625 -24.253906 L 18.160156 -23.417969 L 18.160156 -27.519531 L 17.800781 -26.921875 C 17.640625 -26.601562 17.363281 -26.523438 17.046875 -26.683594 C 16.207031 -27.042969 15.332031 -27.320312 14.417969 -27.558594 C 13.5 -27.757812 12.625 -27.878906 11.75 -27.878906 C 10.394531 -27.878906 9.199219 -27.679688 8.085938 -27.359375 C 6.96875 -27.042969 6.054688 -26.5625 5.257812 -25.964844 C 4.460938 -25.328125 3.824219 -24.613281 3.386719 -23.734375 C 2.90625 -22.859375 2.707031 -21.902344 2.707031 -20.867188 C 2.707031 -19.953125 2.945312 -19.15625 3.425781 -18.4375 C 3.902344 -17.722656 4.539062 -17.085938 5.335938 -16.527344 C 6.132812 -15.96875 6.96875 -15.414062 7.925781 -14.933594 C 8.882812 -14.457031 9.796875 -13.980469 10.714844 -13.5 C 11.507812 -13.023438 12.347656 -12.585938 13.222656 -12.1875 C 14.058594 -11.75 14.816406 -11.269531 15.492188 -10.792969 C 16.167969 -10.316406 16.726562 -9.757812 17.164062 -9.199219 C 17.5625 -8.640625 17.800781 -8.003906 17.800781 -7.289062 C 17.800781 -6.253906 17.5625 -5.375 17.125 -4.621094 C 16.6875 -3.863281 16.128906 -3.226562 15.414062 -2.707031 C 14.695312 -2.191406 13.859375 -1.792969 12.941406 -1.554688 C 11.988281 -1.273438 11.03125 -1.15625 10.074219 -1.15625 C 8.960938 -1.15625 7.925781 -1.273438 6.890625 -1.554688 C 5.855469 -1.792969 4.859375 -2.308594 3.941406 -3.105469 C 3.464844 -3.464844 3.105469 -3.863281 2.867188 -4.339844 L 1.992188 -5.8125 L 1.992188 -1.710938 L 2.269531 -2.152344 C 2.351562 -2.308594 2.507812 -2.390625 2.707031 -2.429688 C 2.867188 -2.46875 3.027344 -2.429688 3.1875 -2.308594 C 3.785156 -1.792969 4.378906 -1.394531 5.019531 -1.113281 C 5.617188 -0.796875 6.210938 -0.597656 6.808594 -0.4375 C 7.367188 -0.277344 7.964844 -0.160156 8.523438 -0.121094 C 9.082031 -0.0390625 9.597656 -0.0390625 10.074219 -0.0390625 C 11.351562 -0.0390625 12.625 -0.199219 13.820312 -0.558594 C 15.015625 -0.914062 16.089844 -1.433594 17.003906 -2.070312 C 17.921875 -2.707031 18.636719 -3.464844 19.195312 -4.339844 C 19.753906 -5.21875 20.03125 -6.210938 20.03125 -7.289062 C 20.03125 -8.484375 19.792969 -9.476562 19.355469 -10.273438 C 18.917969 -11.070312 18.359375 -11.789062 17.640625 -12.425781 C 16.925781 -13.023438 16.089844 -13.582031 15.214844 -14.058594 C 14.296875 -14.535156 13.382812 -15.015625 12.503906 -15.53125 Z M 12.503906 -15.53125 "/></g></g></g><g fill="#cab064" fill-opacity="1"><g transform="translate(94.100106, 209.353609)"><g><path d="M 26.445312 -27.878906 L 21.1875 -27.878906 L 21.863281 -27.558594 C 22.261719 -27.320312 22.621094 -27.042969 22.859375 -26.644531 C 23.097656 -26.246094 23.257812 -25.847656 23.257812 -25.410156 L 23.257812 -9.320312 C 23.257812 -8.285156 23.058594 -7.289062 22.660156 -6.332031 C 22.261719 -5.375 21.746094 -4.5 21.105469 -3.742188 C 20.46875 -2.945312 19.671875 -2.351562 18.796875 -1.871094 C 17.921875 -1.394531 16.964844 -1.15625 15.96875 -1.15625 L 13.0625 -1.15625 C 12.265625 -1.15625 11.507812 -1.3125 10.714844 -1.710938 C 9.917969 -2.109375 9.160156 -2.667969 8.523438 -3.386719 C 7.84375 -4.101562 7.289062 -4.9375 6.890625 -5.933594 C 6.492188 -6.929688 6.292969 -8.042969 6.292969 -9.320312 L 6.292969 -25.410156 C 6.292969 -25.886719 6.410156 -26.363281 6.691406 -26.761719 C 6.96875 -27.160156 7.328125 -27.4375 7.804688 -27.636719 L 8.441406 -27.878906 L 1.953125 -27.878906 L 2.589844 -27.636719 C 3.027344 -27.4375 3.386719 -27.160156 3.664062 -26.761719 C 3.941406 -26.363281 4.101562 -25.886719 4.101562 -25.410156 L 4.101562 -9.320312 C 4.101562 -8.042969 4.339844 -6.808594 4.820312 -5.695312 C 5.296875 -4.539062 5.972656 -3.542969 6.808594 -2.707031 C 7.644531 -1.871094 8.640625 -1.195312 9.796875 -0.71875 C 10.910156 -0.238281 12.148438 0 13.421875 0 L 15.054688 0 C 16.328125 0 17.523438 -0.238281 18.679688 -0.71875 C 19.792969 -1.195312 20.789062 -1.871094 21.625 -2.707031 C 22.460938 -3.542969 23.136719 -4.539062 23.617188 -5.695312 C 24.09375 -6.808594 24.371094 -8.042969 24.371094 -9.320312 L 24.371094 -25.410156 C 24.371094 -25.847656 24.492188 -26.246094 24.730469 -26.644531 C 24.96875 -27.042969 25.328125 -27.320312 25.765625 -27.558594 Z M 26.445312 -27.878906 "/></g></g></g><g fill="#cab064" fill-opacity="1"><g transform="translate(126.554281, 209.353609)"><g><path d="M 12.066406 -27.878906 L 1.992188 -27.878906 L 2.628906 -27.636719 C 3.066406 -27.4375 3.425781 -27.160156 3.703125 -26.761719 C 3.984375 -26.363281 4.140625 -25.886719 4.140625 -25.410156 L 4.140625 -2.507812 C 4.140625 -1.992188 3.984375 -1.554688 3.703125 -1.15625 C 3.425781 -0.757812 3.066406 -0.4375 2.628906 -0.277344 L 1.992188 -0.0390625 L 8.484375 -0.0390625 L 7.84375 -0.277344 C 7.367188 -0.4375 7.007812 -0.757812 6.730469 -1.15625 C 6.453125 -1.554688 6.332031 -1.992188 6.332031 -2.507812 L 6.332031 -13.222656 L 12.066406 -13.222656 C 14.019531 -13.222656 15.613281 -13.382812 16.886719 -13.78125 C 18.121094 -14.175781 19.117188 -14.695312 19.832031 -15.371094 C 20.550781 -16.007812 21.027344 -16.804688 21.304688 -17.683594 C 21.546875 -18.558594 21.703125 -19.515625 21.703125 -20.550781 C 21.703125 -21.546875 21.546875 -22.5 21.304688 -23.378906 C 21.027344 -24.253906 20.550781 -25.050781 19.832031 -25.726562 C 19.117188 -26.363281 18.121094 -26.882812 16.886719 -27.28125 C 15.613281 -27.679688 14.019531 -27.878906 12.066406 -27.878906 Z M 12.066406 -14.296875 L 12.066406 -14.335938 L 6.332031 -14.335938 L 6.332031 -26.722656 L 12.066406 -26.722656 C 13.023438 -26.722656 13.9375 -26.644531 14.855469 -26.484375 C 15.769531 -26.324219 16.566406 -26.046875 17.285156 -25.609375 C 18 -25.167969 18.558594 -24.53125 18.996094 -23.734375 C 19.394531 -22.898438 19.632812 -21.824219 19.632812 -20.511719 C 19.632812 -19.15625 19.394531 -18.082031 18.996094 -17.285156 C 18.558594 -16.449219 18 -15.808594 17.285156 -15.371094 C 16.566406 -14.933594 15.769531 -14.65625 14.894531 -14.496094 C 13.980469 -14.335938 13.023438 -14.296875 12.066406 -14.296875 Z M 12.066406 -14.296875 "/></g></g></g><g fill="#cab064" fill-opacity="1"><g transform="translate(154.150384, 209.353609)"><g><path d="M 21.1875 -4.777344 L 19.953125 -2.746094 C 19.59375 -2.230469 19.15625 -1.832031 18.636719 -1.554688 C 18.121094 -1.273438 17.5625 -1.15625 16.964844 -1.15625 L 6.292969 -1.15625 L 6.292969 -14.097656 L 12.941406 -14.097656 C 13.421875 -14.097656 13.820312 -13.9375 14.21875 -13.699219 C 14.617188 -13.460938 14.894531 -13.101562 15.132812 -12.703125 L 15.371094 -12.148438 L 15.371094 -16.925781 L 15.132812 -16.367188 C 14.894531 -15.929688 14.617188 -15.570312 14.21875 -15.332031 C 13.820312 -15.09375 13.421875 -14.972656 12.941406 -14.972656 L 6.292969 -14.972656 L 6.292969 -26.800781 L 16.726562 -26.800781 C 17.164062 -26.800781 17.5625 -26.683594 17.921875 -26.445312 C 18.28125 -26.203125 18.558594 -25.925781 18.796875 -25.566406 L 19.394531 -24.453125 L 19.15625 -27.957031 L 1.992188 -27.957031 L 2.628906 -27.71875 C 3.066406 -27.519531 3.425781 -27.242188 3.703125 -26.84375 C 3.984375 -26.445312 4.140625 -25.964844 4.140625 -25.488281 L 4.140625 -2.589844 C 4.140625 -2.070312 3.984375 -1.632812 3.703125 -1.234375 C 3.425781 -0.835938 3.066406 -0.519531 2.628906 -0.359375 L 1.992188 -0.121094 L 19.914062 -0.121094 Z M 21.1875 -4.777344 "/></g></g></g><g fill="#cab064" fill-opacity="1"><g transform="translate(181.30846, 209.353609)"><g><path d="M 25.367188 -0.078125 L 24.292969 -0.398438 C 23.417969 -0.71875 22.820312 -1.273438 22.421875 -2.070312 C 21.585938 -3.542969 20.828125 -4.976562 20.113281 -6.332031 C 19.792969 -6.890625 19.433594 -7.488281 19.117188 -8.085938 C 18.796875 -8.683594 18.480469 -9.277344 18.160156 -9.835938 C 17.839844 -10.394531 17.5625 -10.910156 17.324219 -11.390625 C 17.046875 -11.867188 16.804688 -12.304688 16.648438 -12.664062 C 16.566406 -12.785156 16.449219 -12.941406 16.289062 -13.183594 C 16.128906 -13.382812 15.96875 -13.5 15.769531 -13.582031 C 16.925781 -13.78125 17.882812 -14.097656 18.636719 -14.574219 C 19.394531 -15.054688 19.992188 -15.570312 20.429688 -16.207031 C 20.867188 -16.804688 21.1875 -17.484375 21.347656 -18.238281 C 21.503906 -18.996094 21.625 -19.792969 21.625 -20.589844 C 21.625 -21.585938 21.464844 -22.539062 21.226562 -23.417969 C 20.949219 -24.292969 20.46875 -25.089844 19.753906 -25.765625 C 19.035156 -26.402344 18.039062 -26.921875 16.804688 -27.320312 C 15.53125 -27.71875 13.9375 -27.917969 11.988281 -27.917969 L 1.992188 -27.917969 L 2.628906 -27.679688 C 3.066406 -27.480469 3.425781 -27.199219 3.703125 -26.800781 C 3.984375 -26.402344 4.140625 -25.925781 4.140625 -25.449219 L 4.140625 -2.546875 C 4.140625 -2.03125 3.984375 -1.59375 3.703125 -1.195312 C 3.425781 -0.796875 3.066406 -0.476562 2.628906 -0.320312 L 1.992188 -0.078125 L 8.484375 -0.078125 L 7.84375 -0.320312 C 7.367188 -0.476562 7.007812 -0.796875 6.730469 -1.195312 C 6.453125 -1.59375 6.332031 -2.03125 6.332031 -2.546875 L 6.332031 -13.261719 L 12.742188 -13.261719 C 13.539062 -13.261719 14.136719 -12.902344 14.535156 -12.226562 L 21.1875 -0.078125 Z M 12.066406 -14.375 L 12.066406 -14.417969 L 6.332031 -14.417969 L 6.332031 -26.800781 L 12.066406 -26.800781 C 13.023438 -26.800781 13.9375 -26.722656 14.855469 -26.5625 C 15.769531 -26.402344 16.566406 -26.125 17.285156 -25.6875 C 18 -25.25 18.558594 -24.613281 18.996094 -23.816406 C 19.394531 -22.980469 19.632812 -21.902344 19.632812 -20.589844 C 19.632812 -19.234375 19.394531 -18.160156 18.996094 -17.363281 C 18.558594 -16.527344 18 -15.890625 17.285156 -15.453125 C 16.566406 -15.015625 15.769531 -14.734375 14.894531 -14.574219 C 13.980469 -14.417969 13.023438 -14.375 12.066406 -14.375 Z M 12.066406 -14.375 "/></g></g></g><g fill="#cab064" fill-opacity="1"><g transform="translate(212.568029, 209.353609)"><g><path d="M 16.925781 -26.722656 L 16.925781 -26.761719 C 18.121094 -26.761719 19.273438 -26.5625 20.429688 -26.203125 C 21.546875 -25.847656 22.621094 -25.367188 23.617188 -24.769531 C 24.292969 -24.371094 24.851562 -23.816406 25.25 -23.136719 L 25.925781 -21.984375 L 25.925781 -26.085938 L 25.648438 -25.609375 C 25.566406 -25.449219 25.410156 -25.367188 25.25 -25.328125 C 25.089844 -25.289062 24.929688 -25.328125 24.8125 -25.449219 C 23.617188 -26.203125 22.382812 -26.800781 21.066406 -27.199219 C 19.714844 -27.597656 18.359375 -27.835938 16.964844 -27.835938 C 14.65625 -27.835938 12.585938 -27.4375 10.753906 -26.722656 C 8.921875 -26.003906 7.328125 -25.011719 6.054688 -23.734375 C 4.738281 -22.460938 3.742188 -20.988281 3.066406 -19.316406 C 2.351562 -17.601562 2.03125 -15.808594 2.03125 -13.898438 C 2.03125 -11.988281 2.351562 -10.15625 3.066406 -8.484375 C 3.742188 -6.769531 4.738281 -5.296875 6.054688 -4.023438 C 7.328125 -2.746094 8.921875 -1.753906 10.753906 -1.035156 C 12.585938 -0.320312 14.65625 0.0390625 16.964844 0.0390625 C 18.359375 0.0390625 19.714844 -0.160156 21.066406 -0.558594 C 22.382812 -0.957031 23.617188 -1.554688 24.8125 -2.351562 C 24.929688 -2.429688 25.089844 -2.46875 25.25 -2.429688 C 25.410156 -2.390625 25.566406 -2.308594 25.648438 -2.191406 L 25.925781 -1.710938 L 25.925781 -5.8125 L 25.210938 -4.621094 C 24.8125 -3.941406 24.253906 -3.425781 23.617188 -3.027344 C 22.621094 -2.390625 21.546875 -1.910156 20.429688 -1.59375 C 19.316406 -1.234375 18.160156 -1.074219 16.964844 -1.074219 C 15.253906 -1.074219 13.621094 -1.355469 12.066406 -1.992188 C 10.515625 -2.589844 9.160156 -3.464844 7.964844 -4.578125 C 6.769531 -5.695312 5.855469 -7.007812 5.136719 -8.601562 C 4.421875 -10.195312 4.101562 -11.949219 4.101562 -13.898438 C 4.101562 -15.730469 4.421875 -17.402344 5.097656 -18.996094 C 5.734375 -20.550781 6.652344 -21.902344 7.804688 -23.058594 C 8.960938 -24.171875 10.316406 -25.089844 11.867188 -25.726562 C 13.421875 -26.363281 15.09375 -26.722656 16.925781 -26.722656 Z M 16.925781 -26.722656 "/></g></g></g><g fill="#cab064" fill-opacity="1"><g transform="translate(244.464713, 209.353609)"><g><path d="M 23.777344 -0.398438 L 22.699219 0 L 29.191406 0 L 28.714844 -0.160156 C 27.679688 -0.519531 27 -1.195312 26.644531 -2.230469 L 15.652344 -27.878906 L 4.738281 -2.390625 C 4.378906 -1.433594 3.785156 -0.796875 2.945312 -0.398438 L 2.03125 0.0390625 L 7.289062 0.0390625 L 6.371094 -0.398438 C 6.054688 -0.519531 5.855469 -0.71875 5.734375 -1.035156 C 5.617188 -1.355469 5.617188 -1.632812 5.773438 -1.953125 L 9.757812 -11.191406 L 20.511719 -11.191406 L 24.492188 -1.953125 C 24.613281 -1.632812 24.613281 -1.3125 24.453125 -1.035156 C 24.292969 -0.71875 24.09375 -0.519531 23.777344 -0.398438 Z M 20.03125 -12.304688 L 10.234375 -12.304688 L 15.132812 -23.617188 Z M 20.03125 -12.304688 "/></g></g></g><g fill="#cab064" fill-opacity="1"><g transform="translate(279.626671, 209.353609)"><g><path d="M 25.367188 -0.078125 L 24.292969 -0.398438 C 23.417969 -0.71875 22.820312 -1.273438 22.421875 -2.070312 C 21.585938 -3.542969 20.828125 -4.976562 20.113281 -6.332031 C 19.792969 -6.890625 19.433594 -7.488281 19.117188 -8.085938 C 18.796875 -8.683594 18.480469 -9.277344 18.160156 -9.835938 C 17.839844 -10.394531 17.5625 -10.910156 17.324219 -11.390625 C 17.046875 -11.867188 16.804688 -12.304688 16.648438 -12.664062 C 16.566406 -12.785156 16.449219 -12.941406 16.289062 -13.183594 C 16.128906 -13.382812 15.96875 -13.5 15.769531 -13.582031 C 16.925781 -13.78125 17.882812 -14.097656 18.636719 -14.574219 C 19.394531 -15.054688 19.992188 -15.570312 20.429688 -16.207031 C 20.867188 -16.804688 21.1875 -17.484375 21.347656 -18.238281 C 21.503906 -18.996094 21.625 -19.792969 21.625 -20.589844 C 21.625 -21.585938 21.464844 -22.539062 21.226562 -23.417969 C 20.949219 -24.292969 20.46875 -25.089844 19.753906 -25.765625 C 19.035156 -26.402344 18.039062 -26.921875 16.804688 -27.320312 C 15.53125 -27.71875 13.9375 -27.917969 11.988281 -27.917969 L 1.992188 -27.917969 L 2.628906 -27.679688 C 3.066406 -27.480469 3.425781 -27.199219 3.703125 -26.800781 C 3.984375 -26.402344 4.140625 -25.925781 4.140625 -25.449219 L 4.140625 -2.546875 C 4.140625 -2.03125 3.984375 -1.59375 3.703125 -1.195312 C 3.425781 -0.796875 3.066406 -0.476562 2.628906 -0.320312 L 1.992188 -0.078125 L 8.484375 -0.078125 L 7.84375 -0.320312 C 7.367188 -0.476562 7.007812 -0.796875 6.730469 -1.195312 C 6.453125 -1.59375 6.332031 -2.03125 6.332031 -2.546875 L 6.332031 -13.261719 L 12.742188 -13.261719 C 13.539062 -13.261719 14.136719 -12.902344 14.535156 -12.226562 L 21.1875 -0.078125 Z M 12.066406 -14.375 L 12.066406 -14.417969 L 6.332031 -14.417969 L 6.332031 -26.800781 L 12.066406 -26.800781 C 13.023438 -26.800781 13.9375 -26.722656 14.855469 -26.5625 C 15.769531 -26.402344 16.566406 -26.125 17.285156 -25.6875 C 18 -25.25 18.558594 -24.613281 18.996094 -23.816406 C 19.394531 -22.980469 19.632812 -21.902344 19.632812 -20.589844 C 19.632812 -19.234375 19.394531 -18.160156 18.996094 -17.363281 C 18.558594 -16.527344 18 -15.890625 17.285156 -15.453125 C 16.566406 -15.015625 15.769531 -14.734375 14.894531 -14.574219 C 13.980469 -14.417969 13.023438 -14.375 12.066406 -14.375 Z M 12.066406 -14.375 "/></g></g></g><g fill="#cab064" fill-opacity="1"><g transform="translate(103.668729, 235.160214)"><g><path d="M 2.703125 -1.058594 L 2.703125 -10.894531 C 2.703125 -11.097656 2.753906 -11.304688 2.871094 -11.472656 C 2.992188 -11.644531 3.144531 -11.765625 3.351562 -11.851562 L 3.625 -11.953125 L 0.839844 -11.953125 L 1.113281 -11.851562 C 1.300781 -11.765625 1.453125 -11.644531 1.574219 -11.472656 C 1.691406 -11.304688 1.761719 -11.097656 1.761719 -10.894531 L 1.761719 -1.058594 C 1.761719 -0.839844 1.691406 -0.648438 1.574219 -0.480469 C 1.453125 -0.308594 1.300781 -0.171875 1.113281 -0.101562 L 0.839844 0 L 3.625 0 L 3.351562 -0.101562 C 3.144531 -0.171875 2.992188 -0.308594 2.871094 -0.480469 C 2.753906 -0.648438 2.703125 -0.839844 2.703125 -1.058594 Z M 2.703125 -1.058594 "/></g></g></g><g fill="#cab064" fill-opacity="1"><g transform="translate(110.166935, 235.160214)"><g><path d="M 9.421875 -11.988281 L 9.421875 -11.96875 L 9.710938 -11.832031 C 9.882812 -11.730469 10.039062 -11.609375 10.140625 -11.441406 C 10.242188 -11.269531 10.3125 -11.097656 10.3125 -10.910156 L 10.3125 -2.085938 L 2.546875 -11.96875 L 0.855469 -11.96875 L 1.144531 -11.832031 C 1.316406 -11.730469 1.46875 -11.609375 1.574219 -11.441406 C 1.675781 -11.269531 1.746094 -11.097656 1.746094 -10.910156 L 1.746094 -1.078125 C 1.746094 -0.871094 1.675781 -0.699219 1.574219 -0.53125 C 1.46875 -0.359375 1.316406 -0.238281 1.144531 -0.152344 L 0.855469 -0.015625 L 3.113281 -0.015625 L 2.820312 -0.152344 C 2.632812 -0.238281 2.480469 -0.359375 2.375 -0.53125 C 2.273438 -0.699219 2.222656 -0.871094 2.222656 -1.078125 L 2.222656 -10.925781 L 10.789062 -0.015625 L 10.789062 -10.925781 C 10.789062 -11.113281 10.839844 -11.285156 10.945312 -11.457031 C 11.046875 -11.628906 11.199219 -11.746094 11.386719 -11.851562 L 11.679688 -11.988281 Z M 9.421875 -11.988281 "/></g></g></g><g fill="#cab064" fill-opacity="1"><g transform="translate(124.718128, 235.160214)"><g><path d="M 11.371094 -10.464844 L 11.269531 -11.96875 L 0.957031 -11.96875 L 0.855469 -10.464844 L 1.113281 -10.945312 C 1.195312 -11.097656 1.316406 -11.21875 1.46875 -11.320312 C 1.625 -11.421875 1.796875 -11.472656 2 -11.472656 L 5.644531 -11.472656 L 5.644531 -1.078125 C 5.644531 -0.855469 5.574219 -0.667969 5.453125 -0.496094 C 5.335938 -0.324219 5.179688 -0.1875 4.992188 -0.121094 L 4.71875 -0.015625 L 7.507812 -0.015625 L 7.234375 -0.121094 C 7.027344 -0.1875 6.875 -0.324219 6.753906 -0.496094 C 6.636719 -0.667969 6.582031 -0.855469 6.582031 -1.078125 L 6.582031 -11.472656 L 10.226562 -11.472656 C 10.414062 -11.472656 10.585938 -11.421875 10.738281 -11.320312 C 10.894531 -11.21875 11.011719 -11.097656 11.113281 -10.945312 Z M 11.371094 -10.464844 "/></g></g></g><g fill="#cab064" fill-opacity="1"><g transform="translate(138.944469, 235.160214)"><g><path d="M 9.097656 -2.050781 L 8.566406 -1.179688 C 8.414062 -0.957031 8.226562 -0.785156 8.003906 -0.667969 C 7.78125 -0.546875 7.542969 -0.496094 7.285156 -0.496094 L 2.703125 -0.496094 L 2.703125 -6.054688 L 5.558594 -6.054688 C 5.761719 -6.054688 5.933594 -5.984375 6.105469 -5.882812 C 6.277344 -5.78125 6.394531 -5.625 6.496094 -5.453125 L 6.601562 -5.214844 L 6.601562 -7.265625 L 6.496094 -7.027344 C 6.394531 -6.839844 6.277344 -6.6875 6.105469 -6.582031 C 5.933594 -6.480469 5.761719 -6.429688 5.558594 -6.429688 L 2.703125 -6.429688 L 2.703125 -11.507812 L 7.183594 -11.507812 C 7.371094 -11.507812 7.542969 -11.457031 7.695312 -11.355469 C 7.847656 -11.25 7.96875 -11.132812 8.070312 -10.976562 L 8.328125 -10.5 L 8.226562 -12.003906 L 0.855469 -12.003906 L 1.128906 -11.902344 C 1.316406 -11.816406 1.46875 -11.695312 1.589844 -11.527344 C 1.710938 -11.355469 1.777344 -11.148438 1.777344 -10.945312 L 1.777344 -1.113281 C 1.777344 -0.890625 1.710938 -0.699219 1.589844 -0.53125 C 1.46875 -0.359375 1.316406 -0.222656 1.128906 -0.152344 L 0.855469 -0.0507812 L 8.550781 -0.0507812 Z M 9.097656 -2.050781 "/></g></g></g><g fill="#cab064" fill-opacity="1"><g transform="translate(150.896826, 235.160214)"><g><path d="M 10.894531 -0.0351562 L 10.429688 -0.171875 C 10.054688 -0.308594 9.796875 -0.546875 9.628906 -0.890625 C 9.269531 -1.523438 8.941406 -2.136719 8.636719 -2.71875 C 8.5 -2.957031 8.34375 -3.214844 8.207031 -3.472656 C 8.070312 -3.726562 7.933594 -3.984375 7.796875 -4.222656 C 7.660156 -4.464844 7.542969 -4.683594 7.4375 -4.890625 C 7.320312 -5.097656 7.214844 -5.285156 7.148438 -5.4375 C 7.113281 -5.488281 7.0625 -5.558594 6.992188 -5.660156 C 6.925781 -5.746094 6.855469 -5.796875 6.773438 -5.832031 C 7.265625 -5.917969 7.679688 -6.054688 8.003906 -6.257812 C 8.328125 -6.464844 8.585938 -6.6875 8.773438 -6.960938 C 8.960938 -7.214844 9.097656 -7.507812 9.164062 -7.832031 C 9.234375 -8.15625 9.285156 -8.5 9.285156 -8.839844 C 9.285156 -9.269531 9.21875 -9.679688 9.113281 -10.054688 C 8.996094 -10.429688 8.789062 -10.773438 8.480469 -11.0625 C 8.171875 -11.335938 7.746094 -11.558594 7.214844 -11.730469 C 6.667969 -11.902344 5.984375 -11.988281 5.148438 -11.988281 L 0.855469 -11.988281 L 1.128906 -11.882812 C 1.316406 -11.800781 1.46875 -11.679688 1.589844 -11.507812 C 1.710938 -11.335938 1.777344 -11.132812 1.777344 -10.925781 L 1.777344 -1.09375 C 1.777344 -0.871094 1.710938 -0.683594 1.589844 -0.511719 C 1.46875 -0.34375 1.316406 -0.207031 1.128906 -0.136719 L 0.855469 -0.0351562 L 3.640625 -0.0351562 L 3.367188 -0.136719 C 3.164062 -0.207031 3.007812 -0.34375 2.890625 -0.511719 C 2.769531 -0.683594 2.71875 -0.871094 2.71875 -1.09375 L 2.71875 -5.695312 L 5.472656 -5.695312 C 5.8125 -5.695312 6.070312 -5.539062 6.242188 -5.25 L 9.097656 -0.0351562 Z M 5.179688 -6.171875 L 5.179688 -6.191406 L 2.71875 -6.191406 L 2.71875 -11.507812 L 5.179688 -11.507812 C 5.589844 -11.507812 5.984375 -11.472656 6.378906 -11.40625 C 6.773438 -11.335938 7.113281 -11.21875 7.421875 -11.03125 C 7.730469 -10.839844 7.96875 -10.566406 8.15625 -10.226562 C 8.328125 -9.867188 8.429688 -9.40625 8.429688 -8.839844 C 8.429688 -8.257812 8.328125 -7.796875 8.15625 -7.457031 C 7.96875 -7.097656 7.730469 -6.824219 7.421875 -6.636719 C 7.113281 -6.445312 6.773438 -6.328125 6.394531 -6.257812 C 6.003906 -6.191406 5.589844 -6.171875 5.179688 -6.171875 Z M 5.179688 -6.171875 "/></g></g></g><g fill="#cab064" fill-opacity="1"><g transform="translate(164.610246, 235.160214)"><g><path d="M 9.421875 -11.988281 L 9.421875 -11.96875 L 9.710938 -11.832031 C 9.882812 -11.730469 10.039062 -11.609375 10.140625 -11.441406 C 10.242188 -11.269531 10.3125 -11.097656 10.3125 -10.910156 L 10.3125 -2.085938 L 2.546875 -11.96875 L 0.855469 -11.96875 L 1.144531 -11.832031 C 1.316406 -11.730469 1.46875 -11.609375 1.574219 -11.441406 C 1.675781 -11.269531 1.746094 -11.097656 1.746094 -10.910156 L 1.746094 -1.078125 C 1.746094 -0.871094 1.675781 -0.699219 1.574219 -0.53125 C 1.46875 -0.359375 1.316406 -0.238281 1.144531 -0.152344 L 0.855469 -0.015625 L 3.113281 -0.015625 L 2.820312 -0.152344 C 2.632812 -0.238281 2.480469 -0.359375 2.375 -0.53125 C 2.273438 -0.699219 2.222656 -0.871094 2.222656 -1.078125 L 2.222656 -10.925781 L 10.789062 -0.015625 L 10.789062 -10.925781 C 10.789062 -11.113281 10.839844 -11.285156 10.945312 -11.457031 C 11.046875 -11.628906 11.199219 -11.746094 11.386719 -11.851562 L 11.679688 -11.988281 Z M 9.421875 -11.988281 "/></g></g></g><g fill="#cab064" fill-opacity="1"><g transform="translate(179.161442, 235.160214)"><g><path d="M 10.207031 -0.171875 L 9.746094 0 L 12.535156 0 L 12.328125 -0.0703125 C 11.882812 -0.222656 11.59375 -0.511719 11.441406 -0.957031 L 6.71875 -11.96875 L 2.035156 -1.027344 C 1.882812 -0.617188 1.625 -0.34375 1.265625 -0.171875 L 0.871094 0.015625 L 3.128906 0.015625 L 2.734375 -0.171875 C 2.597656 -0.222656 2.515625 -0.308594 2.460938 -0.445312 C 2.410156 -0.582031 2.410156 -0.699219 2.480469 -0.839844 L 4.191406 -4.804688 L 8.804688 -4.804688 L 10.515625 -0.839844 C 10.566406 -0.699219 10.566406 -0.5625 10.5 -0.445312 C 10.429688 -0.308594 10.34375 -0.222656 10.207031 -0.171875 Z M 8.601562 -5.285156 L 4.394531 -5.285156 L 6.496094 -10.140625 Z M 8.601562 -5.285156 "/></g></g></g><g fill="#cab064" fill-opacity="1"><g transform="translate(194.550426, 235.160214)"><g><path d="M 11.371094 -10.464844 L 11.269531 -11.96875 L 0.957031 -11.96875 L 0.855469 -10.464844 L 1.113281 -10.945312 C 1.195312 -11.097656 1.316406 -11.21875 1.46875 -11.320312 C 1.625 -11.421875 1.796875 -11.472656 2 -11.472656 L 5.644531 -11.472656 L 5.644531 -1.078125 C 5.644531 -0.855469 5.574219 -0.667969 5.453125 -0.496094 C 5.335938 -0.324219 5.179688 -0.1875 4.992188 -0.121094 L 4.71875 -0.015625 L 7.507812 -0.015625 L 7.234375 -0.121094 C 7.027344 -0.1875 6.875 -0.324219 6.753906 -0.496094 C 6.636719 -0.667969 6.582031 -0.855469 6.582031 -1.078125 L 6.582031 -11.472656 L 10.226562 -11.472656 C 10.414062 -11.472656 10.585938 -11.421875 10.738281 -11.320312 C 10.894531 -11.21875 11.011719 -11.097656 11.113281 -10.945312 Z M 11.371094 -10.464844 "/></g></g></g><g fill="#cab064" fill-opacity="1"><g transform="translate(208.776764, 235.160214)"><g><path d="M 2.703125 -1.058594 L 2.703125 -10.894531 C 2.703125 -11.097656 2.753906 -11.304688 2.871094 -11.472656 C 2.992188 -11.644531 3.144531 -11.765625 3.351562 -11.851562 L 3.625 -11.953125 L 0.839844 -11.953125 L 1.113281 -11.851562 C 1.300781 -11.765625 1.453125 -11.644531 1.574219 -11.472656 C 1.691406 -11.304688 1.761719 -11.097656 1.761719 -10.894531 L 1.761719 -1.058594 C 1.761719 -0.839844 1.691406 -0.648438 1.574219 -0.480469 C 1.453125 -0.308594 1.300781 -0.171875 1.113281 -0.101562 L 0.839844 0 L 3.625 0 L 3.351562 -0.101562 C 3.144531 -0.171875 2.992188 -0.308594 2.871094 -0.480469 C 2.753906 -0.648438 2.703125 -0.839844 2.703125 -1.058594 Z M 2.703125 -1.058594 "/></g></g></g><g fill="#cab064" fill-opacity="1"><g transform="translate(215.27497, 235.160214)"><g><path d="M 7.097656 -11.96875 C 6.277344 -11.96875 5.507812 -11.832031 4.753906 -11.578125 C 4 -11.320312 3.351562 -10.945312 2.769531 -10.429688 C 2.1875 -9.917969 1.710938 -9.300781 1.367188 -8.550781 C 1.027344 -7.796875 0.855469 -6.941406 0.855469 -5.984375 C 0.855469 -4.992188 1.027344 -4.136719 1.367188 -3.402344 C 1.710938 -2.652344 2.1875 -2.035156 2.769531 -1.523438 C 3.351562 -1.007812 4 -0.632812 4.753906 -0.375 C 5.507812 -0.121094 6.277344 0 7.097656 0 C 7.882812 0 8.667969 -0.121094 9.421875 -0.375 C 10.175781 -0.632812 10.839844 -1.007812 11.421875 -1.523438 C 12.003906 -2.035156 12.464844 -2.652344 12.808594 -3.402344 C 13.148438 -4.136719 13.339844 -4.992188 13.339844 -5.984375 C 13.339844 -6.941406 13.148438 -7.796875 12.808594 -8.550781 C 12.464844 -9.300781 12.003906 -9.917969 11.421875 -10.429688 C 10.839844 -10.945312 10.175781 -11.320312 9.421875 -11.578125 C 8.667969 -11.832031 7.882812 -11.96875 7.097656 -11.96875 Z M 7.097656 -0.480469 C 6.277344 -0.480469 5.523438 -0.617188 4.875 -0.90625 C 4.222656 -1.195312 3.660156 -1.589844 3.199219 -2.101562 C 2.71875 -2.597656 2.359375 -3.179688 2.121094 -3.847656 C 1.863281 -4.496094 1.746094 -5.214844 1.746094 -5.96875 C 1.746094 -6.71875 1.863281 -7.421875 2.121094 -8.089844 C 2.359375 -8.738281 2.71875 -9.320312 3.199219 -9.832031 C 3.660156 -10.328125 4.222656 -10.722656 4.875 -11.011719 C 5.523438 -11.304688 6.277344 -11.457031 7.097656 -11.457031 C 7.898438 -11.457031 8.636719 -11.304688 9.300781 -11.011719 C 9.953125 -10.722656 10.515625 -10.328125 10.976562 -9.832031 C 11.441406 -9.320312 11.800781 -8.738281 12.054688 -8.089844 C 12.292969 -7.421875 12.433594 -6.71875 12.433594 -5.96875 C 12.433594 -5.214844 12.292969 -4.496094 12.054688 -3.847656 C 11.800781 -3.179688 11.441406 -2.597656 10.976562 -2.101562 C 10.515625 -1.589844 9.953125 -1.195312 9.300781 -0.90625 C 8.636719 -0.617188 7.898438 -0.480469 7.097656 -0.480469 Z M 7.097656 -0.480469 "/></g></g></g><g fill="#cab064" fill-opacity="1"><g transform="translate(231.45045, 235.160214)"><g><path d="M 9.421875 -11.988281 L 9.421875 -11.96875 L 9.710938 -11.832031 C 9.882812 -11.730469 10.039062 -11.609375 10.140625 -11.441406 C 10.242188 -11.269531 10.3125 -11.097656 10.3125 -10.910156 L 10.3125 -2.085938 L 2.546875 -11.96875 L 0.855469 -11.96875 L 1.144531 -11.832031 C 1.316406 -11.730469 1.46875 -11.609375 1.574219 -11.441406 C 1.675781 -11.269531 1.746094 -11.097656 1.746094 -10.910156 L 1.746094 -1.078125 C 1.746094 -0.871094 1.675781 -0.699219 1.574219 -0.53125 C 1.46875 -0.359375 1.316406 -0.238281 1.144531 -0.152344 L 0.855469 -0.015625 L 3.113281 -0.015625 L 2.820312 -0.152344 C 2.632812 -0.238281 2.480469 -0.359375 2.375 -0.53125 C 2.273438 -0.699219 2.222656 -0.871094 2.222656 -1.078125 L 2.222656 -10.925781 L 10.789062 -0.015625 L 10.789062 -10.925781 C 10.789062 -11.113281 10.839844 -11.285156 10.945312 -11.457031 C 11.046875 -11.628906 11.199219 -11.746094 11.386719 -11.851562 L 11.679688 -11.988281 Z M 9.421875 -11.988281 "/></g></g></g><g fill="#cab064" fill-opacity="1"><g transform="translate(246.001646, 235.160214)"><g><path d="M 10.207031 -0.171875 L 9.746094 0 L 12.535156 0 L 12.328125 -0.0703125 C 11.882812 -0.222656 11.59375 -0.511719 11.441406 -0.957031 L 6.71875 -11.96875 L 2.035156 -1.027344 C 1.882812 -0.617188 1.625 -0.34375 1.265625 -0.171875 L 0.871094 0.015625 L 3.128906 0.015625 L 2.734375 -0.171875 C 2.597656 -0.222656 2.515625 -0.308594 2.460938 -0.445312 C 2.410156 -0.582031 2.410156 -0.699219 2.480469 -0.839844 L 4.191406 -4.804688 L 8.804688 -4.804688 L 10.515625 -0.839844 C 10.566406 -0.699219 10.566406 -0.5625 10.5 -0.445312 C 10.429688 -0.308594 10.34375 -0.222656 10.207031 -0.171875 Z M 8.601562 -5.285156 L 4.394531 -5.285156 L 6.496094 -10.140625 Z M 8.601562 -5.285156 "/></g></g></g><g fill="#cab064" fill-opacity="1"><g transform="translate(261.390629, 235.160214)"><g><path d="M 9.082031 -2.019531 L 8.566406 -1.179688 C 8.414062 -0.957031 8.226562 -0.785156 8.003906 -0.667969 C 7.78125 -0.546875 7.542969 -0.496094 7.285156 -0.496094 L 2.703125 -0.496094 L 2.703125 -10.910156 C 2.703125 -11.113281 2.753906 -11.320312 2.871094 -11.492188 C 2.992188 -11.664062 3.144531 -11.78125 3.351562 -11.867188 L 3.625 -11.96875 L 0.839844 -11.96875 L 1.113281 -11.867188 C 1.300781 -11.78125 1.453125 -11.664062 1.574219 -11.492188 C 1.691406 -11.320312 1.761719 -11.113281 1.761719 -10.910156 L 1.761719 -1.078125 C 1.761719 -0.855469 1.691406 -0.667969 1.574219 -0.496094 C 1.453125 -0.324219 1.300781 -0.1875 1.113281 -0.121094 L 0.839844 -0.015625 L 8.53125 -0.015625 Z M 9.082031 -2.019531 "/></g></g></g></svg>